PathFileType	3	(X/Y/Z)	results
DataRate	CameraRate	NumFrames	NumMarkers	Units	OrigDataRate	OrigDataStartFrame	OrigNumFrames
30.0	30.0	4	85	mm	30.0	1	369
Frame#	Time	head			nose			neck			shoulder_r			elbow_r			wrist_r			shoulder_l			elbow_l			wrist_l			hip_r			knee_r			ankle_r			hip_l			knee_l			ankle_l			heel_r			heel_l			mtoe_r			ltoe_r			mtoe_l			ltoe_l			asis_l			asis_r			psi_r			psi_l			mhnd_r			lhnd_r			mhnd_l			lhnd_l			l_lat_knee			r_med_wrist			l_lat_ankle			r_med_ankle			r_lat_knee			xiphoid			l_med_ankle			r_med_knee			l_med_elbow			navel			r_lat_elbow			r_lat_wrist			l_med_wrist			l_lat_elbow			l_med_knee			r_med_elbow			r_lat_ankle			l_lat_wrist			chin			T10			r_eye			l_eye			l_ear			r_ear			spinal_cord_8			spinal_cord_12			spinal_cord_27			spinal_cord_33			up_arm_r_0			up_arm_r_5			up_arm_l_0			up_arm_l_5			front_torso_11			front_torso_7			front_torso_4			front_torso_1			front_torso_10			thigh_r_2			thigh_r_3			thigh_l_1			thigh_l_5			shank_l_0			shank_l_4			shank_r_1			shank_r_2			foot_r_1			foot_r_3			foot_r_5			foot_r_6			foot_r_7			foot_l_1			foot_l_7			foot_l_0			foot_l_4			foot_l_5			foot_l_6			
		X1	Y1	Z1	X2	Y2	Z2	X3	Y3	Z3	X4	Y4	Z4	X5	Y5	Z5	X6	Y6	Z6	X7	Y7	Z7	X8	Y8	Z8	X9	Y9	Z9	X10	Y10	Z10	X11	Y11	Z11	X12	Y12	Z12	X13	Y13	Z13	X14	Y14	Z14	X15	Y15	Z15	X16	Y16	Z16	X17	Y17	Z17	X18	Y18	Z18	X19	Y19	Z19	X20	Y20	Z20	X21	Y21	Z21	X22	Y22	Z22	X23	Y23	Z23	X24	Y24	Z24	X25	Y25	Z25	X26	Y26	Z26	X27	Y27	Z27	X28	Y28	Z28	X29	Y29	Z29	X30	Y30	Z30	X31	Y31	Z31	X32	Y32	Z32	X33	Y33	Z33	X34	Y34	Z34	X35	Y35	Z35	X36	Y36	Z36	X37	Y37	Z37	X38	Y38	Z38	X39	Y39	Z39	X40	Y40	Z40	X41	Y41	Z41	X42	Y42	Z42	X43	Y43	Z43	X44	Y44	Z44	X45	Y45	Z45	X46	Y46	Z46	X47	Y47	Z47	X48	Y48	Z48	X49	Y49	Z49	X50	Y50	Z50	X51	Y51	Z51	X52	Y52	Z52	X53	Y53	Z53	X54	Y54	Z54	X55	Y55	Z55	X56	Y56	Z56	X57	Y57	Z57	X58	Y58	Z58	X59	Y59	Z59	X60	Y60	Z60	X61	Y61	Z61	X62	Y62	Z62	X63	Y63	Z63	X64	Y64	Z64	X65	Y65	Z65	X66	Y66	Z66	X67	Y67	Z67	X68	Y68	Z68	X69	Y69	Z69	X70	Y70	Z70	X71	Y71	Z71	X72	Y72	Z72	X73	Y73	Z73	X74	Y74	Z74	X75	Y75	Z75	X76	Y76	Z76	X77	Y77	Z77	X78	Y78	Z78	X79	Y79	Z79	X80	Y80	Z80	X81	Y81	Z81	X82	Y82	Z82	X83	Y83	Z83	X84	Y84	Z84	X85	Y85	Z85	
1	0.03333333333333333	68.75681187164331	1688.0485435028954	-268.89373309620913	39.157479253058916	1508.4728745731861	-382.90298893301895	47.020149451958225	1355.482019034179	-225.45155692874314	203.64744179386955	1311.7930720445313	-232.7231717899875	301.8990611294576	1085.2066005044053	-321.9400873738831	141.850274409058	1224.1319885502521	-412.8058101795346	-101.2750271575379	1320.2648914259357	-258.7723871864404	-166.59563822461692	1110.3000329938277	-369.1489178553736	3.416776362008489	1222.6234999721232	-445.4418195600555	143.93669361790276	883.5386489183352	-208.89510138256267	165.18229466144166	482.30672959050287	-219.70894239196005	214.2837758714326	110.70050119217339	-165.29535846154747	-44.69524389677122	874.9853482104952	-216.25364475120017	-59.87463128852822	478.6822326699782	-207.91994518108683	-95.7312250579555	102.58033192627641	-165.2731413807708	213.84142438884842	55.19718888110431	-144.68423040634187	-104.63621366715259	40.01487161978197	-138.612821564538	246.67828385688145	39.43361816897356	-361.11144795217075	300.8181913799135	39.100739263379936	-293.0821118359325	-99.21986451699424	44.22183908824214	-363.9586935774095	-177.64943122255548	32.42505439344489	-307.2203524578365	-88.96859202320887	941.9058830408251	-237.30212182201694	187.31113861795572	950.803254565967	-224.43695095198	90.29751868491053	929.637180855614	-102.5489649589714	-3.640692660505679	926.5333070678257	-111.43536223311362	86.55337257400919	1241.5986530828495	-457.73749223143983	91.7201773558739	1290.8006478593936	-437.2067812573539	65.30747377087876	1235.7702809299212	-488.0014309943899	65.39020678138652	1283.0210187653101	-463.03929460809957	-110.78884813063905	474.8887236693013	-202.28409754190784	144.96530646236914	1201.3508499963864	-430.4970003836368	-148.24005444266362	93.6543951906274	-157.07585734527623	184.5076021036675	94.98691857676378	-181.51192933479905	209.7583759880108	475.33116063668206	-219.11351780911744	62.07979234986855	1177.5814356240817	-296.165663000639	-68.22223429934132	87.09051237692877	-178.84917247105042	123.00235096453711	475.21005920694705	-228.45932738016916	-154.87659811686842	1100.3781332289543	-339.00219542982825	63.83236779607353	960.9655190537169	-283.0743551175843	325.1986301826969	1110.8759004714855	-342.1920030957666	146.2972736888099	1236.2453466425177	-383.5309783328356	-4.464746749288123	1202.312035340987	-466.4573449518521	-184.6385248612495	1137.5543663541048	-387.41571046164944	-19.831902780724306	475.55630606388297	-238.65344752689757	276.4325347176779	1071.973933670057	-298.57198088377754	262.07481192193217	99.76296263459483	-159.35619313622954	-8.354261402213957	1240.36788389318	-425.553928532658	37.7530314462367	1432.9070172794052	-360.11718637687113	37.448916489562734	1212.978666301999	-107.43296421692739	74.02048443350284	1538.087564005587	-388.3988816751897	5.087288037169242	1542.2576268901187	-378.84109230733685	-33.17133389495107	1544.1040877052758	-269.5746235743559	137.98431399127253	1530.719689601987	-290.5722431864758	40.135100307645736	1419.5887509912423	-185.45212986937423	34.21963277872669	1311.050476248288	-120.46658669263178	51.91966837396224	1062.7068151994577	-102.29552194372975	39.08404181505364	1201.9094126731802	-118.88194399074786	232.39791112996815	1207.5528498114213	-318.0584904588544	292.29173331315934	1178.9751244756685	-259.2041912195387	-132.0324477810481	1291.7329700367236	-296.90510795847854	-147.83043075890168	1150.4668451247771	-303.8258502080216	102.19180588591351	994.4364121790094	-242.7398422584489	67.82183926850362	1088.5585119417672	-314.77401861106637	3.938156998405579	1219.5299698840324	-314.84970045946596	-3.937619356979616	1023.7693561315748	-264.42745676540244	135.01009911065904	1262.7295911683634	-311.4646013750609	137.3493108504561	664.9486397260711	-218.42291205137593	237.66240874399347	632.9351764936499	-210.00366753353876	-8.99672892684622	590.0201063470105	-221.1969378287977	-152.66823848062157	770.7265492984312	-213.91016780096908	-153.3115030514141	199.16547153002938	-181.3646614689363	-26.956677775331485	328.06932263994196	-198.62080546303312	241.78712408095328	331.76061799652933	-186.72848415372607	153.34006470394885	281.87244735746543	-201.83287203088346	266.35910906706624	33.681625274653555	-339.83208757379066	286.9203260518702	36.706453822302024	-320.0588334589005	221.75362074699578	52.4861591130991	-284.1107992081179	254.97388407652056	60.53245860099515	-265.79884773536975	283.23446124046063	48.73178917203461	-248.86324887996608	-148.16437655972516	32.81307472432524	-337.60865797892035	-163.18211031399275	60.93130453299071	-231.883638966843	-162.81483029862466	33.11835904096703	-329.47989180062496	-130.15551896348776	32.391493002796636	-346.95265809778243	-135.32441472994415	46.88038900441539	-288.3031163386952	-103.9295204273598	57.015022862611715	-259.0211653808498	
2	0.06666666666666667	68.56550352236764	1681.395388131235	-275.11649634021916	37.128629849388695	1502.5102166820427	-389.71784968625775	50.16751010418729	1350.9175810388433	-230.9474340468495	213.09167619211635	1315.2972089390767	-232.5705801244787	284.4635492511845	1092.6327847948394	-352.07404354679585	121.6911109676152	1230.6058813341672	-439.4869437499443	-99.79831697260258	1310.1396727270876	-255.7052786344378	-160.7634709497384	1107.6631098403168	-381.48879906221646	1.5856186173578979	1235.4108629706489	-449.78721694290977	146.59882787327436	878.0001252107395	-192.61505079553575	171.79432050073993	479.0564708057489	-236.8974254256558	217.11252925870045	109.598195157804	-166.82728151389026	-41.755905525846124	871.6146458133677	-206.43659278833502	-64.8101460779106	475.43465271042146	-222.06035062672703	-94.59282198976285	100.80085488311896	-164.4444268280494	216.63586907362594	54.0789944072273	-144.24625160306198	-102.20910361747588	37.752980100418625	-136.4028065682694	247.18956704764136	39.157492778547315	-361.0671692406533	302.19998386876824	41.10831189953403	-293.7672486366328	-104.7318485780996	45.6797011296104	-361.6995005036833	-181.2441358975144	33.88150658496972	-302.4013309670388	-84.2477568804071	938.0775594829041	-232.10075843463	191.49732363142303	943.8998804119962	-209.60816949406768	89.88446922783507	929.641207409042	-90.49543162608245	-3.711836919168168	927.3756924945875	-102.64403473875808	65.55522730018137	1247.8465206070089	-483.455235697698	70.53749831595601	1296.9442794744307	-462.63146791978846	61.74769567006316	1255.7251438588125	-492.0065404506512	60.01802327122351	1300.3568675604163	-462.6677470786692	-115.53915749818248	472.75618079569506	-216.86627884523998	124.76800052969503	1207.9894519191196	-457.3948129832801	-146.79043485833853	91.51577675495265	-154.78826244999968	186.3643095043445	93.69713225234133	-180.90625712154704	216.11608349320537	472.3063058151028	-233.23695952429443	60.8040164565555	1170.4262392375301	-295.6439214846571	-67.1646092472389	85.16153004613808	-178.01249105207756	129.90875932010945	472.60426508598084	-246.73418809744558	-147.66005296756245	1095.7385073298851	-352.66677343689497	60.61537526006778	954.4132008431309	-274.7814951511363	307.60865898961106	1118.5630052580975	-372.1700762695977	126.45520756190032	1242.5456754899205	-410.1907029385941	-5.7394727143361965	1216.782267091751	-472.4950297409778	-180.44124450875887	1135.591304496839	-396.81268003941983	-23.758464351666067	473.6887821354956	-251.09748992895132	260.42989241540323	1078.8838208581517	-327.51665830872133	264.9359762571727	98.05294486388222	-162.52476201072142	-10.608069609183229	1250.5647321334795	-428.0933717989072	38.40017843755822	1426.6831472834979	-367.80888414860425	43.113329517864145	1212.8621133354281	-107.58565455475252	71.06257946390006	1532.9162053759435	-396.54622522725043	2.608753195806383	1535.5182501245592	-383.59132808908146	-30.283634872143633	1535.3398789659793	-272.57623114285764	139.878120750514	1525.8192505290501	-302.04880318698724	45.379820551635916	1416.4959071582755	-193.08462483868414	40.51854083264385	1310.4363109054602	-124.04550068127301	56.09212854862055	1062.7043059636517	-97.50553213414723	44.228781882512656	1201.370547839833	-118.67532709604865	225.3207223394202	1218.3935948805024	-329.7038393269019	288.23696629868545	1180.1041194869647	-280.2746254936407	-130.71899938922542	1283.668545973801	-295.16899237696	-141.34218416021056	1142.951146710106	-313.59051448764035	100.71542624725024	988.8336907452359	-237.02125295804078	64.91461762556445	1080.7299809692	-311.2005005744651	2.5174923417929027	1212.3897867405547	-313.8363465908439	-5.770545976671093	1018.6727891533587	-256.1156252187365	134.0973334107598	1254.0690200888416	-316.5022640245283	142.23298786989346	660.9207780189116	-220.4226283666662	242.2843188895718	628.7303976552478	-209.84086629144787	-11.222269167364736	586.7397334920407	-226.8814104316322	-151.66193239563344	769.5472398304869	-212.47534165130355	-153.81977248171262	195.94923058671614	-182.9395494613138	-29.637998501103947	325.72433159933	-207.7755993738052	247.30077961284087	328.82740783763273	-200.15309927676722	157.4305634373846	279.96024640505823	-208.82484612470887	267.3633595786391	34.2326315621376	-340.0434845436624	288.05012002530174	38.10923586698819	-320.5518275792869	222.7947075892348	51.381973224870606	-283.7615389601463	255.91177048953207	60.77261974005573	-265.9084635736265	284.83900540790586	50.13308762351164	-249.33300081930153	-152.85235159010142	34.423114167708576	-333.8112237678373	-163.75446739418405	60.940727875963525	-227.17208060733913	-167.20036972497414	34.76909456653565	-325.1613390277953	-135.19286855229007	33.94062691735249	-343.7970580435138	-138.0950049354159	47.50356539829175	-284.77131244452016	-105.55565768826324	56.76400997812326	-256.465519918592	
3	0.1	68.3674953153899	1673.254483076766	-285.1178898961309	36.63643827100926	1493.1264878145275	-397.6731968395824	52.57402828977114	1344.8793163633475	-238.31358157413368	217.625537533944	1308.088292440029	-236.43071540638834	275.8686505557402	1092.6080156121666	-374.7436139267055	112.78584229256874	1230.802227344478	-461.2237541210721	-95.6152722510397	1299.0685788392027	-262.0173058950692	-156.027126092734	1100.6293053983009	-394.3323284766287	-1.8834845412235846	1239.9486649157789	-458.9174895509677	147.08730089288684	870.2303128127465	-176.25795185951017	179.07942763601707	476.2363540664324	-252.78112547752107	218.64550656564683	108.85450272923919	-169.54601711699092	-41.45036382447132	865.2917595932971	-188.02547662347087	-69.00334568471207	471.72587722312403	-239.83787233224803	-94.95559330643565	100.14882155838927	-163.58790524332971	217.71829165224995	53.75121024972133	-144.95280592483024	-102.09188576718306	36.97123413616723	-133.66613320901533	247.91249114638143	36.63296223678024	-361.6617487440531	303.085662207337	42.63119353096881	-294.7351218769809	-105.64034358676285	46.47414698627736	-358.8880249982118	-181.874952248702	34.20405993666521	-299.3285604126863	-83.27913640133275	929.8158277365951	-219.14659707655034	192.7067764528526	933.7336507836465	-199.35791411531895	91.96847038368428	931.4860683402551	-78.68037551872662	-1.7532692907439584	929.4691841880292	-89.86774922731833	57.05506635482747	1248.4413565468924	-505.54789549821146	61.22835934709734	1297.1050554333467	-483.5599376340621	55.97376100868804	1265.6671761965315	-501.4111845612774	53.07413690111561	1308.286365442061	-469.30286458348996	-119.55086729497911	470.266380934569	-237.98629439394588	116.34497050515199	1208.6304864083495	-479.5924345192094	-146.9952833168155	90.8961812670217	-153.085320476621	186.70209690253068	93.28238566283225	-181.10638574913634	223.02737147703425	469.7785099049567	-246.55533887417235	60.04751524001576	1161.7631999191383	-295.65928856784154	-67.48493817655229	84.09877389677578	-176.57816233039563	137.35492165338832	470.3351638811827	-263.1049061656112	-141.23417347792207	1087.843849686065	-366.7224471990774	58.83399883252981	946.8171356637803	-265.7657104370271	299.24236066148853	1119.1273076695154	-393.778313660149	117.03103500491055	1242.1255136872644	-431.604730643712	-9.024199575474123	1222.4144345394816	-482.5371267924585	-177.25513301634354	1128.5581922095403	-407.423132911512	-24.91790171713109	471.93224946936425	-263.24827966704385	252.24368151651748	1077.9247165057711	-350.3309654589227	266.3162602547667	96.11175433344977	-167.54397633993258	-14.102159778907664	1253.1453349782892	-435.9936902367288	40.111077393570206	1417.4679639146098	-375.42283269497915	47.95196590926493	1212.1517237799114	-109.12679830136187	69.7263922051745	1524.1410049105657	-405.7860554823198	1.7023744462080632	1525.4976684116689	-390.57360007402747	-27.478954794970008	1525.3361988991433	-278.5257678309322	141.7644455069243	1518.9279720756151	-313.59575540644346	49.33838061280267	1412.0176707975384	-203.11410576849664	45.624015056095	1308.973775486412	-129.58295733560678	60.0888704835949	1062.438312686715	-93.12632039637717	48.670458318810475	1200.1987195038741	-119.75179740842003	222.50246702698752	1218.3735666553948	-340.84438101907944	285.6713137049659	1174.2512818136759	-296.90458527821744	-127.49707269915628	1273.4129584114132	-301.25419919336224	-134.58018532839603	1133.4076952546454	-325.7888031432225	100.23214026477007	982.4348015529058	-230.60613325919937	63.05189598938138	1071.4643747152218	-307.55125246757206	1.5882782161174975	1203.4326959229543	-313.9730334889456	-6.521901205263088	1012.3685927537521	-247.97771639004856	133.34862973484775	1243.8291669588996	-322.02629863430343	146.40242039980245	656.046131466264	-221.42909647846986	246.40804930897727	624.066771237525	-209.82488081242482	-13.148208931395507	582.3748073110305	-228.78078704487993	-151.7147247763037	766.4683254361323	-212.70859148920815	-155.17879891203955	193.74644835403808	-186.298351950426	-32.36688091713377	323.21682406446763	-218.4569249733958	252.6166282625034	325.53436421861795	-214.0340918879594	161.1219820953506	278.98424926166376	-215.32673860581068	268.421994059707	33.136642745292285	-340.6768131571886	288.9764224034409	38.4282660499539	-321.3789115045541	223.30387404746418	48.92652459396605	-284.4348631905541	255.97527263760074	60.34291451241553	-266.9448044923531	285.5020709005735	51.51861204177806	-250.36076398811596	-153.62606994221795	34.986760414120546	-330.8619736292572	-164.06406635091204	60.748590324221226	-223.99138286432202	-167.93501788755358	35.26148866352252	-322.1450724632651	-136.0116438564852	34.58734509436384	-340.93071150266417	-138.65612674415985	47.73430270105631	-281.79883722756813	-105.995536480145	56.82037848783946	-253.57629457084118	
4	0.13333333333333333	68.9644513180836	1659.8071323146658	-295.5486987515985	38.170830715873926	1480.02868270636	-408.9202726408336	55.02744563967095	1334.2856743673801	-248.18357650032118	213.80331072666712	1293.2861709345987	-247.7205829543384	277.3656643500201	1081.6497535366661	-389.5808023472378	114.95360296456816	1220.8398347605328	-475.7254525628849	-92.41552811842061	1285.4200684542814	-274.90915748052896	-152.61576657025316	1087.224709650384	-407.68541126123534	-5.404519190998353	1233.6443231081146	-472.735658286528	146.61440999060355	859.1244881088872	-156.80308827630495	185.8350431365447	473.4722673326265	-268.4755527221002	219.77733737090512	108.74554450094159	-172.11518290044648	-42.10009935096438	855.3586933522417	-165.8566907564687	-73.48312686376451	468.411967812518	-258.06948010529874	-96.87725911430698	100.89488296428934	-163.5126619743062	218.0429171744391	53.76743366603331	-146.16408806131946	-104.04237946326336	37.79759040691767	-131.70820291878627	247.9259054392896	36.27800788448112	-362.8865303559364	303.1934258422835	40.82335124715505	-295.92331650232546	-102.5168572676511	47.70912390013054	-356.9352699699784	-179.8739376668052	33.87656725465558	-299.1932323844633	-83.53272497487451	916.3249305133008	-203.9090386949762	192.7039947803049	918.8510598385378	-187.72081043315632	93.44638211232798	932.1722477504644	-66.53170804219741	-0.42403100137053396	930.1069540368893	-76.38410589859416	59.97713956652745	1239.2126115013907	-520.6889635638877	63.33160771887225	1287.3196927331774	-497.3759085620309	50.299529272703126	1262.5077114331468	-516.0782539621699	46.76127596522327	1304.18092818549	-482.81309061142457	-123.66387770396494	468.52891416151243	-257.2399153173637	119.05032086885012	1199.177981588763	-494.58395008837044	-148.87306526480234	91.78475622348247	-152.6735333632825	187.80659556524373	93.15918247725375	-183.58040688469174	229.47645097079726	467.47527496043017	-260.7984698963797	60.66903764004646	1148.544191878029	-296.60019907741037	-69.25651567236584	84.4262981036093	-175.63157062129915	144.05062216244494	468.3296513970535	-278.5654199238568	-136.42736112052927	1074.472696979442	-380.8539638379304	58.4328220032017	935.3246697241591	-256.23506701391227	300.89119585437834	1108.8295302936185	-407.46185578803306	118.5211254348723	1231.422896547966	-445.74551571930056	-12.561143668146535	1216.4537400982001	-496.60180358444677	-175.0715149310533	1114.7417152504595	-419.5417988045818	-27.788744971714323	470.58341063196616	-277.24189421440843	253.3460059466756	1066.1749850664885	-366.05840045149864	267.2573372443518	95.5212988754927	-169.00785271274032	-17.451222771545925	1245.8117577507805	-449.16068920147677	42.635802182288565	1404.279615210467	-387.1600597829439	51.0576795271639	1208.0492605370628	-112.62616782678984	70.86029039756431	1511.4406684760168	-417.1269877661853	2.9591285355747843	1511.9841728785702	-401.3262552441471	-25.25382874722282	1510.8429685817334	-289.03636499050833	143.73984873786804	1506.4414885866013	-325.5885453527399	52.62778794313629	1403.0810513752651	-216.2701170467533	49.10962305031628	1303.7727012438816	-137.7580493615347	62.42524215882975	1059.2134392736516	-89.47229049153962	51.57680637882203	1195.58778665538	-122.66226889237065	221.96046840893493	1206.0701797152456	-354.0293863750498	284.56758238541727	1161.5561838608673	-309.68259040690174	-125.10225237379305	1259.4422454229543	-313.261792631927	-129.40438218802925	1119.6415798048292	-339.54594296784967	100.46178504879028	972.3264088443806	-223.32522544412663	62.96006745482283	1057.7543354463016	-304.1019384611309	2.268090354412042	1189.6753338194676	-316.2669492511781	-6.2935833693323895	1002.116623236723	-240.93384738573798	134.18091395614798	1228.7172900864268	-327.7670711750945	149.74884813548402	649.7572685491621	-220.60988711377547	250.04107117438323	618.2337309688759	-210.3045636485406	-16.14334474680486	577.0131196286723	-231.84151982148666	-152.4276712712131	761.6376055524881	-205.57748090495204	-157.7340999741701	192.79473068866733	-190.9713133181302	-35.80308720547167	321.4269052922779	-229.26114211125235	256.9930821470059	323.34627659653853	-223.54379756213342	164.9631770344993	277.85561703926174	-224.51892489858622	268.33338473522315	32.24972821030786	-341.8975038664631	289.0002013585866	37.00847548019538	-322.58088343201644	223.58277483682477	49.03852733704038	-285.65124891658013	256.5127576548617	59.628763150606154	-268.12642267239085	285.80771098390346	50.06221949942611	-251.542771650342	-150.91724479135758	35.25897754004956	-330.0569165490253	-164.3299663723133	60.59272984697318	-223.41617989724523	-165.4282130554003	35.24518928381795	-321.6761383766266	-133.0684060143937	35.21333675891937	-339.7121686184343	-137.339286572166	48.182713715475636	-280.6362075178215	-105.52341041824914	57.82361189047366	-251.64334718039112	
